<svg xmlns="http://www.w3.org/2000/svg" version="1.1" viewBox="1.5606341361999512 1.626688003540039 559.856689453125 527.87353515625" width="620.00" height="553.00">
<path fill="#41b4b4" d="&#10;  M 65.82 397.30&#10;  Q 59.03 387.08 53.98 376.25&#10;  Q 48.36 364.22 43.35 350.35&#10;  Q 41.55 345.36 37.11 328.76&#10;  Q 34.34 318.45 32.91 309.21&#10;  Q 27.26 272.78 30.00 239.79&#10;  Q 31.62 220.22 37.80 194.73&#10;  C 38.63 191.32 39.87 188.10 40.71 184.71&#10;  C 43.64 172.98 49.03 162.13 53.53 150.99&#10;  C 55.74 145.50 58.47 140.18 61.52 135.26&#10;  Q 69.57 122.28 77.24 110.39&#10;  C 82.18 102.74 88.49 96.40 94.28 89.18&#10;  Q 96.34 86.61 98.61 84.32&#10;  C 100.78 82.13 102.68 79.72 104.94 77.73&#10;  C 114.03 69.74 122.35 60.71 132.49 54.02&#10;  C 138.60 49.99 144.32 45.46 150.56 41.65&#10;  C 155.28 38.78 159.76 35.41 164.80 32.92&#10;  Q 171.62 29.55 178.29 26.31&#10;  C 182.16 24.43 186.85 23.07 190.29 21.54&#10;  Q 205.84 14.64 222.30 10.37&#10;  C 229.94 8.38 238.18 7.15 246.22 5.73&#10;  Q 257.73 3.69 276.09 2.68&#10;  C 283.15 2.30 289.74 1.34 296.76 1.71&#10;  C 303.81 2.09 310.86 3.06 317.75 3.29&#10;  Q 328.08 3.63 334.05 4.68&#10;  Q 344.57 6.54 353.77 7.93&#10;  C 357.95 8.57 361.56 9.92 365.51 10.97&#10;  Q 386.06 16.38 405.68 25.71&#10;  Q 411.37 28.42 417.68 31.01&#10;  Q 425.12 34.06 430.19 37.52&#10;  Q 439.91 44.16 450.31 51.23&#10;  Q 459.79 57.68 466.32 63.16&#10;  Q 482.91 77.06 496.92 93.42&#10;  Q 502.35 99.77 506.80 104.57&#10;  Q 508.82 106.76 510.44 108.92&#10;  C 512.16 111.21 514.15 113.50 515.20 116.17&#10;  Q 519.55 127.17 508.71 133.01&#10;  Q 507.14 133.86 505.32 134.31&#10;  C 500.80 135.42 494.21 130.93 492.28 128.17&#10;  Q 487.20 120.86 482.28 114.19&#10;  Q 481.46 113.07 478.74 110.92&#10;  Q 477.02 109.56 475.32 107.51&#10;  Q 469.42 100.41 463.27 94.34&#10;  C 460.20 91.32 454.81 87.82 451.10 84.06&#10;  Q 448.17 81.09 445.31 79.11&#10;  Q 436.13 72.75 427.19 65.97&#10;  C 421.04 61.30 413.90 57.59 406.95 54.31&#10;  Q 388.35 45.51 370.38 39.07&#10;  Q 350.41 31.91 333.37 29.77&#10;  Q 323.93 28.59 314.03 27.79&#10;  C 309.01 27.39 303.92 27.40 298.96 26.94&#10;  C 293.05 26.38 286.60 27.17 280.67 27.33&#10;  C 274.99 27.49 269.20 27.54 263.67 28.33&#10;  Q 249.14 30.40 237.25 32.96&#10;  Q 225.65 35.46 211.74 40.57&#10;  Q 197.81 45.68 179.11 54.80&#10;  Q 170.80 58.85 162.13 64.91&#10;  Q 152.09 71.92 142.80 78.82&#10;  C 131.61 87.14 120.75 97.75 112.60 107.60&#10;  C 107.40 113.90 101.96 120.29 97.44 127.03&#10;  Q 91.05 136.58 85.00 146.30&#10;  Q 79.32 155.42 75.52 164.12&#10;  Q 68.53 180.18 63.18 196.65&#10;  Q 61.83 200.80 60.84 205.19&#10;  C 60.03 208.77 59.01 212.19 58.44 215.82&#10;  Q 55.98 231.39 54.11 247.29&#10;  Q 53.67 250.98 53.63 264.50&#10;  Q 53.56 284.02 56.03 296.31&#10;  Q 57.01 301.17 57.81 307.02&#10;  Q 58.64 313.06 60.49 319.75&#10;  Q 65.93 339.46 72.36 355.60&#10;  Q 74.11 360.02 76.42 364.41&#10;  C 78.40 368.18 79.31 372.22 81.48 376.04&#10;  Q 84.81 381.91 90.24 387.47&#10;  C 91.45 388.70 92.40 390.01 94.44 389.52&#10;  Q 100.01 388.16 104.81 387.65&#10;  C 114.57 386.61 123.91 386.05 133.84 386.05&#10;  Q 219.48 386.09 305.89 386.29&#10;  Q 308.31 386.29 310.47 385.93&#10;  Q 317.95 384.67 325.38 383.60&#10;  Q 329.53 383.00 333.32 381.37&#10;  C 336.70 379.93 340.24 379.23 343.54 377.63&#10;  C 347.45 375.74 351.58 374.50 355.33 372.34&#10;  Q 361.56 368.75 367.47 365.38&#10;  C 376.96 359.96 386.10 367.62 385.13 377.70&#10;  C 384.51 384.27 379.35 387.32 374.11 389.96&#10;  C 371.45 391.30 369.27 393.24 366.67 394.58&#10;  Q 361.68 397.14 356.40 399.79&#10;  Q 350.65 402.66 345.29 404.24&#10;  Q 327.47 409.50 314.17 409.59&#10;  Q 243.03 410.06 142.87 409.71&#10;  C 136.48 409.69 130.42 409.77 123.92 410.49&#10;  C 109.08 412.14 94.79 414.11 81.44 419.50&#10;  Q 67.63 425.08 56.93 431.20&#10;  Q 43.90 438.66 27.69 453.45&#10;  C 25.69 455.28 23.93 457.92 21.64 459.16&#10;  Q 13.23 463.70 6.06 459.12&#10;  C -6.71 450.97 11.14 433.12 17.20 428.39&#10;  C 22.60 424.16 27.91 419.55 33.53 415.60&#10;  C 36.68 413.39 39.68 411.14 42.98 409.27&#10;  Q 53.25 403.45 65.54 398.23&#10;  A 0.63 0.63 0.0 0 0 65.82 397.30&#10;  Z" data-c-fill="41b4b4"/>
<path fill="#41b4b4" d="&#10;  M 435.98 156.03&#10;  A 0.67 0.67 0.0 0 0 436.84 156.53&#10;  C 443.95 154.26 451.18 152.04 458.11 149.25&#10;  Q 464.10 146.84 470.01 146.80&#10;  C 476.72 146.75 483.49 150.92 482.67 158.72&#10;  C 482.23 162.99 481.88 167.62 480.30 171.74&#10;  C 478.64 176.05 478.05 180.37 476.87 184.73&#10;  C 474.88 192.06 473.35 199.53 471.14 206.98&#10;  C 467.36 219.76 463.94 233.18 458.65 244.85&#10;  Q 455.38 252.04 452.08 259.51&#10;  Q 450.58 262.89 448.93 265.94&#10;  C 447.43 268.70 446.13 271.70 444.38 274.23&#10;  C 440.05 280.52 436.63 287.03 431.97 293.31&#10;  Q 425.18 302.48 417.54 310.33&#10;  C 414.32 313.65 411.60 317.24 408.18 320.32&#10;  Q 398.30 329.22 391.26 334.50&#10;  Q 387.81 337.09 383.89 339.64&#10;  Q 380.07 342.12 376.05 344.17&#10;  Q 368.15 348.21 360.27 352.01&#10;  Q 353.88 355.09 347.23 356.94&#10;  Q 339.52 359.09 332.94 360.07&#10;  C 328.80 360.69 324.27 360.87 320.00 360.88&#10;  Q 260.64 360.89 203.62 360.79&#10;  C 198.29 360.78 192.77 360.50 187.50 359.40&#10;  Q 175.29 356.86 165.65 352.02&#10;  C 151.28 344.79 139.87 337.01 129.66 323.98&#10;  C 122.28 314.56 116.48 303.51 112.66 293.23&#10;  Q 108.66 282.48 106.61 274.75&#10;  C 105.11 269.05 104.25 258.40 110.70 255.77&#10;  Q 113.37 254.69 118.74 254.64&#10;  Q 129.74 254.53 142.58 254.18&#10;  A 0.44 0.43 -0.7 0 0 143.01 253.75&#10;  Q 143.24 216.02 143.20 176.54&#10;  Q 143.20 172.56 143.35 168.41&#10;  C 143.50 164.45 145.03 161.15 147.85 158.63&#10;  Q 166.37 142.12 183.59 128.81&#10;  Q 194.53 120.36 204.16 112.57&#10;  Q 208.59 108.99 212.87 105.80&#10;  C 218.82 101.37 224.35 96.60 230.33 92.16&#10;  Q 234.67 88.93 239.08 85.71&#10;  Q 240.91 84.37 243.25 84.33&#10;  Q 302.19 83.54 377.60 83.66&#10;  Q 380.14 83.66 382.13 85.10&#10;  C 387.00 88.62 389.92 93.70 389.86 99.86&#10;  Q 389.57 130.42 389.68 161.01&#10;  Q 389.70 166.25 389.46 171.75&#10;  A 0.92 0.92 0.0 0 0 390.71 172.65&#10;  L 409.20 165.53&#10;  A 1.29 1.28 81.8 0 0 410.02 164.42&#10;  Q 410.74 153.37 410.48 141.97&#10;  C 410.18 128.81 410.30 115.43 410.54 102.48&#10;  C 410.73 92.13 422.13 86.25 430.17 92.90&#10;  Q 435.19 97.04 435.34 104.25&#10;  Q 435.85 127.87 435.67 153.24&#10;  Q 435.66 154.52 435.98 156.03&#10;  Z&#10;  M 311.74 149.79&#10;  C 303.31 149.68 299.54 144.24 299.54 136.29&#10;  Q 299.54 126.77 299.69 117.23&#10;  Q 299.76 113.35 299.38 109.93&#10;  Q 299.28 109.11 298.47 109.11&#10;  L 260.26 108.91&#10;  A 1.25 1.25 0.0 0 0 259.03 109.95&#10;  Q 258.68 111.98 258.69 114.25&#10;  Q 258.92 157.04 258.83 202.73&#10;  Q 258.82 203.40 259.50 203.40&#10;  Q 277.81 203.36 296.91 203.42&#10;  Q 299.48 203.43 302.30 202.45&#10;  Q 311.40 199.29 320.57 196.37&#10;  C 330.80 193.12 340.39 189.49 350.14 186.19&#10;  C 354.36 184.77 358.45 182.90 362.84 181.42&#10;  A 2.42 2.41 82.3 0 0 364.49 179.24&#10;  Q 364.79 173.26 364.81 167.48&#10;  Q 364.90 142.31 364.65 117.85&#10;  Q 364.61 114.06 364.32 110.02&#10;  A 1.09 1.09 0.0 0 0 363.23 109.01&#10;  L 325.30 108.99&#10;  A 1.18 1.18 0.0 0 0 324.13 110.00&#10;  Q 323.67 113.16 323.66 116.16&#10;  Q 323.63 126.17 323.63 137.27&#10;  C 323.64 144.96 319.67 149.90 311.74 149.79&#10;  Z&#10;  M 233.63 125.70&#10;  Q 234.34 123.99 234.84 122.31&#10;  Q 235.05 121.61 234.46 121.20&#10;  Q 234.01 120.89 233.61 121.27&#10;  Q 230.96 123.83 228.59 125.85&#10;  Q 215.15 137.30 200.52 149.38&#10;  C 190.87 157.34 181.02 164.90 171.28 172.52&#10;  Q 169.12 174.21 169.15 177.66&#10;  Q 169.29 190.52 169.10 203.21&#10;  A 0.97 0.97 0.0 0 0 170.29 204.17&#10;  Q 172.26 203.71 174.27 203.59&#10;  C 184.35 203.02 194.63 203.96 204.54 204.01&#10;  Q 218.51 204.08 232.69 204.17&#10;  A 0.63 0.63 0.0 0 0 233.32 203.54&#10;  L 233.48 126.41&#10;  A 1.77 1.75 -33.4 0 1 233.63 125.70&#10;  Z&#10;  M 273.39 279.36&#10;  A 6.73 6.43 -51.3 0 1 271.67 279.59&#10;  L 135.25 279.65&#10;  A 1.08 1.08 0.0 0 0 134.32 281.27&#10;  C 136.48 285.02 138.66 288.58 140.41 292.57&#10;  Q 143.40 299.37 147.72 304.76&#10;  C 150.78 308.57 153.91 313.10 157.58 316.15&#10;  C 160.87 318.89 163.74 321.87 167.39 324.11&#10;  Q 180.43 332.09 190.70 334.62&#10;  C 203.88 337.87 217.89 337.53 232.00 337.55&#10;  Q 270.44 337.62 306.25 337.52&#10;  Q 317.47 337.49 325.66 336.03&#10;  Q 347.75 332.11 367.25 319.38&#10;  Q 377.64 312.60 383.08 307.79&#10;  Q 389.57 302.05 396.18 295.38&#10;  Q 401.06 290.45 406.70 283.43&#10;  Q 422.54 263.69 431.77 242.05&#10;  C 436.35 231.31 441.25 220.05 444.34 208.77&#10;  Q 446.74 200.03 449.50 190.83&#10;  C 450.53 187.41 451.21 183.71 451.88 180.23&#10;  A 1.09 1.09 0.0 0 0 450.40 179.02&#10;  C 447.00 180.41 443.37 180.89 439.86 182.08&#10;  C 433.37 184.27 426.74 186.92 420.76 188.96&#10;  Q 412.15 191.90 403.61 195.03&#10;  C 399.41 196.57 395.00 197.63 390.84 199.30&#10;  Q 386.45 201.07 381.58 202.82&#10;  C 375.92 204.85 370.30 207.07 364.58 208.56&#10;  Q 363.11 208.95 361.84 209.43&#10;  Q 349.35 214.19 345.51 215.21&#10;  Q 334.90 218.01 326.23 221.35&#10;  Q 321.17 223.30 316.75 224.36&#10;  C 313.06 225.24 309.50 226.33 305.85 227.50&#10;  Q 303.29 228.31 302.49 230.00&#10;  Q 296.17 243.22 289.50 258.03&#10;  C 287.28 262.97 284.53 267.29 282.13 272.05&#10;  C 280.29 275.68 277.16 278.31 273.39 279.36&#10;  Z&#10;  M 172.95 227.58&#10;  Q 171.67 227.57 170.48 227.60&#10;  A 1.21 1.20 89.8 0 0 169.30 228.80&#10;  L 169.11 253.83&#10;  A 0.95 0.95 0.0 0 0 170.16 254.78&#10;  Q 172.83 254.49 175.64 254.50&#10;  Q 217.03 254.73 260.32 254.14&#10;  Q 261.68 254.12 262.45 252.97&#10;  Q 267.06 246.03 270.48 237.52&#10;  C 271.70 234.49 273.27 232.06 274.68 229.24&#10;  A 1.08 1.08 0.0 0 0 273.71 227.68&#10;  Q 226.56 228.12 172.95 227.58&#10;  Z" data-c-fill="41b4b4"/>
<path fill="#41b4b4" d="&#10;  M 283.65 500.97&#10;  C 304.67 502.19 326.33 499.61 347.40 494.54&#10;  Q 358.46 491.89 373.62 486.57&#10;  Q 399.35 477.54 421.45 463.71&#10;  Q 430.77 457.88 440.86 450.79&#10;  Q 449.78 444.53 456.65 438.24&#10;  Q 470.43 425.63 482.77 411.76&#10;  Q 488.17 405.68 493.15 398.29&#10;  Q 501.86 385.36 508.18 374.26&#10;  C 511.98 367.57 514.99 360.34 518.24 353.34&#10;  Q 520.03 349.47 521.36 345.74&#10;  C 527.39 328.85 531.82 312.79 533.92 295.46&#10;  Q 535.58 281.77 536.47 270.01&#10;  Q 536.98 263.36 536.46 255.99&#10;  Q 535.17 237.50 531.88 218.31&#10;  C 530.47 210.13 527.62 202.28 525.41 194.31&#10;  C 522.70 184.56 518.94 175.40 515.12 165.78&#10;  Q 512.08 158.13 516.37 152.29&#10;  Q 518.76 149.03 522.46 148.15&#10;  C 528.53 146.71 534.83 148.30 537.39 154.48&#10;  Q 542.83 167.68 547.79 181.62&#10;  Q 549.19 185.57 550.09 189.50&#10;  C 551.51 195.75 553.80 201.79 555.06 207.85&#10;  C 556.09 212.81 557.57 217.40 558.19 222.45&#10;  C 560.61 242.11 562.56 262.62 560.64 281.97&#10;  Q 559.78 290.75 558.57 301.56&#10;  Q 557.42 311.88 555.26 319.79&#10;  Q 552.71 329.10 549.63 339.84&#10;  Q 546.95 349.17 544.21 356.59&#10;  Q 535.37 380.54 521.08 402.36&#10;  C 516.19 409.82 510.74 417.89 504.95 424.76&#10;  Q 500.42 430.14 495.69 435.53&#10;  Q 484.10 448.74 470.95 459.54&#10;  C 466.38 463.29 462.00 467.39 457.05 470.97&#10;  Q 437.85 484.83 420.09 494.71&#10;  C 413.33 498.47 406.12 501.99 398.94 504.92&#10;  Q 373.72 515.22 347.15 520.69&#10;  C 318.53 526.58 288.83 526.68 259.55 524.08&#10;  C 250.50 523.28 241.57 521.09 232.51 519.72&#10;  Q 227.99 519.04 223.43 517.76&#10;  C 219.49 516.65 215.48 515.92 211.49 514.71&#10;  Q 185.01 506.69 158.48 495.39&#10;  Q 158.01 495.19 157.79 494.74&#10;  Q 157.27 493.67 157.33 492.25&#10;  Q 157.75 482.94 157.60 473.79&#10;  Q 157.59 472.64 158.73 472.55&#10;  C 164.44 472.07 169.84 471.84 175.41 474.33&#10;  Q 186.69 479.38 199.10 483.31&#10;  C 201.89 484.19 204.60 485.49 207.43 486.42&#10;  Q 222.97 491.53 236.77 494.80&#10;  C 250.08 497.95 264.02 500.20 278.14 500.42&#10;  C 279.99 500.45 281.79 500.86 283.65 500.97&#10;  Z" data-c-fill="41b4b4"/>
<path fill="#41b4b4" d="&#10;  M 447.95 389.99&#10;  Q 438.81 400.89 434.47 405.39&#10;  Q 429.40 410.66 422.80 416.53&#10;  C 412.89 425.34 402.27 432.28 390.80 438.92&#10;  Q 385.56 441.96 377.63 445.23&#10;  C 371.56 447.74 365.56 450.44 359.33 452.17&#10;  Q 344.86 456.20 330.84 458.81&#10;  C 324.67 459.95 318.62 460.90 312.35 460.87&#10;  Q 219.66 460.43 135.37 460.88&#10;  Q 126.37 460.93 111.01 464.58&#10;  Q 83.99 471.00 62.61 487.20&#10;  Q 57.48 491.08 51.39 497.39&#10;  Q 46.08 502.90 40.49 508.75&#10;  C 34.86 514.64 30.14 521.01 25.29 527.32&#10;  A 3.50 3.48 10.0 0 1 23.57 528.52&#10;  C 18.12 530.19 11.88 530.09 8.09 525.32&#10;  C 5.79 522.42 7.20 513.09 7.73 509.64&#10;  Q 7.96 508.18 8.89 507.02&#10;  Q 15.31 499.09 21.70 491.00&#10;  Q 25.01 486.80 28.57 483.39&#10;  C 31.94 480.17 34.76 476.64 38.56 473.70&#10;  C 44.61 469.00 50.16 464.09 57.05 460.09&#10;  C 61.62 457.44 65.69 454.44 70.64 452.11&#10;  Q 85.23 445.25 90.91 443.48&#10;  Q 107.45 438.32 123.43 436.68&#10;  Q 126.59 436.36 139.00 436.33&#10;  Q 221.64 436.12 303.76 436.21&#10;  Q 308.68 436.22 313.21 435.80&#10;  C 317.45 435.41 321.66 435.62 325.77 434.52&#10;  C 332.47 432.71 339.51 431.63 346.03 429.61&#10;  Q 362.46 424.50 372.74 419.12&#10;  Q 378.77 415.97 391.20 408.49&#10;  Q 396.98 405.01 401.86 400.64&#10;  Q 412.29 391.29 419.38 383.72&#10;  C 430.62 371.72 438.84 356.73 446.80 341.57&#10;  Q 450.67 334.19 454.32 321.94&#10;  Q 455.02 319.60 455.91 317.28&#10;  C 457.46 313.27 458.33 309.61 462.18 307.08&#10;  Q 467.79 303.39 473.69 305.95&#10;  Q 479.45 308.44 480.92 312.85&#10;  C 482.90 318.83 479.99 327.23 477.87 332.68&#10;  C 476.03 337.39 474.27 342.19 472.22 346.73&#10;  C 467.23 357.74 462.68 368.14 456.00 377.90&#10;  Q 454.36 380.29 453.12 382.65&#10;  Q 451.46 385.81 447.95 389.99&#10;  Z" data-c-fill="41b4b4"/>
</svg>